<svg width="27" height="27" viewBox="0 0 27 27" fill="none" xmlns="http://www.w3.org/2000/svg">
<path d="M5.34486 16.2314H15.6618V14.2537H5.34486V16.2314ZM5.34486 11.9464H21.1663V9.9687H5.34486V11.9464ZM5.34486 7.66141H21.1663V5.68373H5.34486V7.66141ZM0.0710449 26.746V2.35463C0.0710449 1.84923 0.268813 1.39326 0.664349 0.986738C1.05988 0.580215 1.52134 0.376953 2.04872 0.376953H24.4624C24.9678 0.376953 25.4238 0.580215 25.8303 0.986738C26.2369 1.39326 26.4401 1.84923 26.4401 2.35463V19.4945C26.4401 19.9999 26.2369 20.4559 25.8303 20.8624C25.4238 21.2689 24.9678 21.4722 24.4624 21.4722H5.34486L0.0710449 26.746Z" fill="white"/>
</svg>
