<svg width="30" height="27" viewBox="0 0 30 27" fill="none" xmlns="http://www.w3.org/2000/svg">
<path d="M14.357 4.06981L14.7431 4.60514L15.1539 4.08841C16.1516 2.83324 17.1917 1.93087 18.269 1.35896C19.3476 0.786323 20.5047 0.5 21.7477 0.5C23.8058 0.5 25.5101 1.17937 26.8943 2.53381C28.2768 3.88654 28.9683 5.56051 28.9683 7.59055C28.9683 8.63119 28.7778 9.66309 28.3935 10.6888C28.0116 11.7077 27.3363 12.8701 26.3487 14.1783C25.3623 15.4849 24.0313 16.978 22.3501 18.6588C20.6679 20.3406 18.531 22.3421 15.9376 24.6643C15.9372 24.6647 15.9367 24.6651 15.9363 24.6655L14.7625 25.702L13.5887 24.6655C13.5882 24.6651 13.5877 24.6647 13.5873 24.6643C10.9939 22.3421 8.85703 20.3406 7.17483 18.6588C5.49365 16.978 4.16267 15.4849 3.17626 14.1783C2.18862 12.8701 1.5133 11.7077 1.13146 10.6888C0.747125 9.66309 0.556641 8.63119 0.556641 7.59055C0.556641 5.56051 1.24814 3.88654 2.63059 2.53381C4.01479 1.17937 5.71911 0.5 7.7772 0.5C9.09347 0.5 10.3038 0.804135 11.4167 1.41038C12.5325 2.01822 13.5134 2.90038 14.357 4.06981Z" stroke="white"/>
</svg>
