<svg width="27" height="25" viewBox="0 0 27 25" fill="none" xmlns="http://www.w3.org/2000/svg">
<path d="M26.0843 8.21882L18.8931 0.916328C18.6556 0.675412 18.3743 0.555054 18.05 0.555054C17.9007 0.555054 17.7442 0.586758 17.5821 0.649968C17.095 0.865574 16.8515 1.23957 16.8515 1.77202V5.42347H13.8549C12.5316 5.42347 11.3046 5.49321 10.1749 5.63261C9.04512 5.77195 8.04939 5.96518 7.18792 6.21262C6.3264 6.4596 5.54916 6.76719 4.85621 7.13486C4.1634 7.5024 3.5735 7.89231 3.08646 8.30441C2.59935 8.71644 2.17186 9.18561 1.80354 9.71174C1.43503 10.2378 1.14182 10.7543 0.923126 11.2615C0.704825 11.7688 0.53008 12.3265 0.39889 12.935C0.267568 13.5436 0.180261 14.114 0.136575 14.6463C0.0928882 15.1787 0.0710449 15.7558 0.0710449 16.3767C0.0710449 17.0869 0.180458 17.8601 0.39889 18.6971C0.617387 19.5336 0.857728 20.2562 1.11991 20.8648C1.38203 21.4729 1.69118 22.1039 2.04703 22.7567C2.40282 23.4095 2.64933 23.8435 2.78669 24.0591C2.92398 24.2743 3.0553 24.4712 3.18006 24.6486C3.30489 24.8134 3.46717 24.8957 3.66684 24.8957C3.71702 24.8957 3.7916 24.8833 3.89164 24.8579C4.17875 24.7184 4.30351 24.5032 4.26605 24.2115C3.7043 19.9517 4.16635 16.9531 5.65195 15.2164C7.08796 13.5557 9.82216 12.7252 13.8547 12.7252H16.8515V16.3763C16.8515 16.9092 17.0948 17.283 17.5819 17.4987C17.744 17.562 17.9003 17.5935 18.0498 17.5935C18.3869 17.5935 18.668 17.4731 18.8929 17.2324L26.0843 9.92988C26.3213 9.68883 26.4401 9.40382 26.4401 9.07418C26.44 8.74481 26.3212 8.45933 26.0843 8.21882Z" fill="white"/>
</svg>
