<svg width="34" height="40" viewBox="0 0 34 40" fill="none" xmlns="http://www.w3.org/2000/svg">
<path fill-rule="evenodd" clip-rule="evenodd" d="M6.56253 0.663671C5.87341 0.229163 5.06377 -0.00180529 4.2361 1.0626e-05C3.68727 9.22583e-06 3.14384 0.102624 2.63691 0.301966C2.12999 0.501308 1.66953 0.793473 1.2819 1.16172C0.894266 1.52997 0.587084 1.96707 0.37794 2.448C0.168795 2.92893 0.0617902 3.44424 0.0630636 3.96442C0.0630658 4.74889 0.308618 5.51572 0.76865 6.16786C1.22868 6.82 1.88252 7.32813 2.64737 7.62792C3.41223 7.9277 4.25373 8.00566 5.06536 7.85195C5.87699 7.69823 6.62226 7.31976 7.20684 6.76441C7.79141 6.20906 8.18902 5.50181 8.34932 4.73219C8.50961 3.96257 8.4254 3.16517 8.10734 2.44093C7.78927 1.71669 7.25165 1.09818 6.56253 0.663671ZM4.21661 9.41106C5.33492 9.41106 6.40743 9.83211 7.1982 10.5816C7.98897 11.3311 8.43323 12.3476 8.43323 13.4076V35.2255C8.43323 36.2855 7.98897 37.302 7.1982 38.0515C6.40743 38.801 5.33492 39.2221 4.21661 39.2221C3.09829 39.2221 2.02579 38.801 1.23503 38.0515C0.44426 37.302 2.84573e-06 36.2855 2.77907e-06 35.2255V13.4122C-0.000633433 12.887 0.107972 12.3668 0.319592 11.8814C0.531211 11.3959 0.841702 10.9548 1.23331 10.5832C1.62493 10.2116 2.08997 9.91685 2.60186 9.71572C3.11376 9.51459 3.66247 9.41106 4.21661 9.41106ZM16.7117 18.3262C17.2658 18.3256 17.8147 18.4286 18.3268 18.6291C18.8389 18.8297 19.3043 19.124 19.6964 19.4952C20.0885 19.8663 20.3995 20.3071 20.6117 20.7923C20.8239 21.2775 20.9331 21.7975 20.9331 22.3228V27.8747C20.8961 28.9118 20.4353 29.8947 19.6482 30.616C18.861 31.3372 17.809 31.7404 16.7141 31.7404C15.6193 31.7404 14.5672 31.3372 13.7801 30.616C12.9929 29.8947 12.5321 28.9118 12.4951 27.8747V22.3228C12.4951 21.2628 12.9393 20.2463 13.7301 19.4968C14.5209 18.7473 15.5934 18.3262 16.7117 18.3262ZM16.6438 8.63086C17.4717 8.62814 18.2818 8.85833 18.9716 9.29228C19.6613 9.72624 20.1997 10.3444 20.5185 11.0686C20.8373 11.7927 20.9222 12.5903 20.7625 13.3602C20.6027 14.1301 20.2055 14.8378 19.6211 15.3936C19.0367 15.9494 18.2915 16.3284 17.4797 16.4824C16.668 16.6365 15.8262 16.5588 15.0611 16.2592C14.2959 15.9595 13.6418 15.4514 13.1816 14.7992C12.7213 14.147 12.4757 13.3799 12.4756 12.5953C12.4744 11.5459 12.9126 10.5389 13.6942 9.79553C14.4757 9.05219 15.5366 8.63329 16.6438 8.63086ZM31.557 18.4208C30.8679 17.9863 30.0583 17.7554 29.2306 17.7572C28.6818 17.7572 28.1384 17.8598 27.6314 18.0591C27.1245 18.2585 26.664 18.5506 26.2764 18.9189C25.8888 19.2871 25.5816 19.7242 25.3724 20.2052C25.1633 20.6861 25.0563 21.2014 25.0576 21.7216C25.0576 22.506 25.3031 23.2729 25.7632 23.925C26.2232 24.5772 26.877 25.0853 27.6419 25.3851C28.4067 25.6849 29.2482 25.7628 30.0599 25.6091C30.8715 25.4554 31.6168 25.0769 32.2013 24.5216C32.7859 23.9662 33.1835 23.259 33.3438 22.4894C33.5041 21.7197 33.4199 20.9223 33.1018 20.1981C32.7838 19.4739 32.2462 18.8553 31.557 18.4208Z" fill="white"/>
</svg>
